<?xml version="1.0" encoding="UTF-8" standalone="no"?> <svg xmlns="http://www.w3.org/2000/svg" xmlns:xlink="http://www.w3.org/1999/xlink" viewBox="0 0 64 64"><defs><style>.cls-1{fill:url(#linear-gradient);}</style><linearGradient id="linear-gradient" x1="2.06" y1="32" x2="61.94" y2="32" gradientUnits="userSpaceOnUse"><stop offset="0" stop-color="#17a6d7"/><stop offset="1" stop-color="#9d31fe"/></linearGradient></defs><g id="Layer_7" data-name="Layer 7"><path class="cls-1" d="M53.5,52.89c11.25-11.12,11.25-30.67,0-41.78a3.91,3.91,0,0,0-.61-.61C41.77-.75,22.23-.75,11.11,10.5a3.91,3.91,0,0,0-.61.61C-.75,22.23-.75,41.78,10.5,52.89a4.32,4.32,0,0,0,.6.61c11.13,11.25,30.68,11.25,41.8,0A4.32,4.32,0,0,0,53.5,52.89Zm1.32-8.45c-1-4.42-3.27-8.39-6.08-12.44,2.81-4.05,5-8,6.08-12.44A26.14,26.14,0,0,1,54.82,44.44Zm-4.51,6c-2.77,2.57-11.22-1.57-15-4.23A73.22,73.22,0,0,0,46.21,35.36c2.65,3.72,6.8,12.2,4.23,15Zm-36.62,0-.13-.13c-2.57-2.76,1.57-11.22,4.23-15A73.22,73.22,0,0,0,28.64,46.21C24.92,48.86,16.44,53,13.69,50.44Zm12.07-12.2A65.8,65.8,0,0,1,20.23,32,68.28,68.28,0,0,1,32,20.23,68.28,68.28,0,0,1,43.77,32,68.28,68.28,0,0,1,32,43.77,65.8,65.8,0,0,1,25.76,38.24ZM13.56,13.69l.14-.14c3.86-2.57,11,1.77,14.94,4.24A73.22,73.22,0,0,0,17.79,28.64C15.14,24.92,11,16.44,13.56,13.69Zm36.74-.14.14.14c2.57,2.76-1.57,11.22-4.23,15A73.22,73.22,0,0,0,35.36,17.79C39.26,15.32,46.44,11,50.3,13.55ZM44.44,9.18c-4.42,1-8.39,3.27-12.44,6.08-4.05-2.81-8-5-12.44-6.08A26.14,26.14,0,0,1,44.44,9.18ZM9.18,19.56C10.21,24,12.45,28,15.26,32c-2.81,4-5,8-6.08,12.44A26.14,26.14,0,0,1,9.18,19.56ZM19.56,54.82C24,53.79,28,51.55,32,48.74c4,2.81,8,5,12.44,6.08A26.14,26.14,0,0,1,19.56,54.82Z"/></g></svg>