<?xml version="1.0" encoding="UTF-8" standalone="no"?> <svg xmlns="http://www.w3.org/2000/svg" viewBox="0 0 48 48"><defs><style>.cls-1{fill:#009ae0;}.cls-2{fill:#0081bd;}.cls-3{fill:#00cf66;}.cls-4{fill:#00b157;}</style></defs><title>International</title><g id="_11_-_20" data-name="11 - 20"><g id="International"><circle class="cls-1" cx="24" cy="24" r="22"/><path class="cls-2" d="M28.19,39.714A19.89,19.89,0,0,1,17.67,2.935a22,22,0,1,0,27.395,27.4A19.87,19.87,0,0,1,28.19,39.714Z"/><path class="cls-3" d="M26.368,26.64,25.3,24.5a2.471,2.471,0,0,0-.7-.838L21.716,21.5a2.389,2.389,0,0,0-1.906-.429L17.2,21.59a2.388,2.388,0,0,1-2.472-1.026l-.116-.168a2.41,2.41,0,0,1,.3-3.027,2.4,2.4,0,0,0,.7-1.7V14.519a2.391,2.391,0,0,1,.7-1.7l2.043-2.043a2.4,2.4,0,0,0,.576-.932l.3-.922a2.392,2.392,0,0,0-.88-2.714L15.117,3.883A22.039,22.039,0,0,0,3.405,16.322l1.9.952a2.383,2.383,0,0,1,1.205,1.383l.356,1.058A2.384,2.384,0,0,0,8.38,21.234l1.467.493a2.4,2.4,0,0,1,.932.576l2.043,2.043a2.4,2.4,0,0,1,.7,1.7v4a2.389,2.389,0,0,0,1.068,2l1.006.67a2.387,2.387,0,0,1,1.069,2v2.661a2.388,2.388,0,0,0,1.068,2l.744.492a2.37,2.37,0,0,0,2.661,0l.744-.492a2.388,2.388,0,0,0,1.068-2v-4a2.4,2.4,0,0,1,.7-1.7l2.263-2.263A2.406,2.406,0,0,0,26.368,26.64Z"/><path class="cls-3" d="M30.673,8.642a3.052,3.052,0,0,0-.387,1.477v.859a3.045,3.045,0,0,0,3.541,3.007l2.147-.356a3.007,3.007,0,0,0,1.111-.43l4.28-2.673a22.053,22.053,0,0,0-8.143-6.48Z"/><path class="cls-3" d="M46,24a21.913,21.913,0,0,0-1.51-7.966l-3.98,2.277a2.587,2.587,0,0,1-1.7.3l-3.74-.628a2.579,2.579,0,0,0-2.242,4.368l1.09,1.09a2.584,2.584,0,0,1,.712,1.32l.734,3.708a2.584,2.584,0,0,0,.712,1.32l2.127,2.127A2.6,2.6,0,0,1,38.855,33L40.5,38.515A21.892,21.892,0,0,0,46,24Z"/><path class="cls-4" d="M8.286,19.81a19.857,19.857,0,0,1,7.428-15.5l-.6-.429A22.039,22.039,0,0,0,3.405,16.322l1.9.952a2.383,2.383,0,0,1,1.205,1.383l.356,1.058a2.384,2.384,0,0,0,1.5,1.509C8.324,20.755,8.286,20.287,8.286,19.81Z"/><path class="cls-4" d="M16.667,36.02v1.358a2.388,2.388,0,0,0,1.068,2l.744.492a2.37,2.37,0,0,0,2.661,0l.744-.492a2.315,2.315,0,0,0,.544-.519A19.786,19.786,0,0,1,16.667,36.02Z"/><path class="cls-4" d="M39.75,35.993l.753,2.522a22.035,22.035,0,0,0,4.54-8.148A19.991,19.991,0,0,1,39.75,35.993Z"/></g></g></svg>